<svg width="541" height="533" viewBox="0 0 541 533" fill="none" xmlns="http://www.w3.org/2000/svg">
<path d="M392 98L404 134" stroke="black" stroke-width="13" stroke-miterlimit="10" stroke-linecap="round" stroke-linejoin="round"/>
<path d="M508.526 109.725C478.435 60.588 430.058 22.9101 373.672 7.00001L310 228L534 168.843C532.089 161.705 529.819 154.666 527.198 147.754" stroke="black" stroke-width="13" stroke-miterlimit="10" stroke-linecap="round" stroke-linejoin="round"/>
<path d="M344.674 111C358.827 114.939 367.015 129.323 362.964 143.13C358.911 156.935 344.153 164.935 330 160.996" stroke="black" stroke-width="13" stroke-miterlimit="10" stroke-linecap="round" stroke-linejoin="round"/>
<path d="M407.363 200C401.4 189.414 403.439 175.731 412.906 167.431C423.725 157.946 440.148 159.085 449.589 169.975C451.837 172.562 453.556 175.569 454.645 178.825C455.735 182.08 456.174 185.52 455.938 188.947" stroke="black" stroke-width="13" stroke-miterlimit="10" stroke-linecap="round" stroke-linejoin="round"/>
<path d="M362 53C367.344 54.564 372.615 56.3649 377.797 58.3974C434.084 80.4722 473.319 127.065 488 181" stroke="black" stroke-width="13" stroke-miterlimit="10" stroke-linecap="round" stroke-linejoin="round"/>
<path d="M237.006 296.245L459.52 238.289C491.557 361.043 417.906 486.501 295.015 518.509C172.125 550.517 46.5309 476.953 14.493 354.201C-17.5439 231.448 56.1069 105.988 178.998 73.9804C218.644 63.6545 258.572 64.3155 295.549 74.0724L237.006 296.245Z" stroke="black" stroke-width="13" stroke-miterlimit="10" stroke-linecap="round" stroke-linejoin="round"/>
<path d="M152.439 225.1C156.084 239.067 147.704 253.342 133.722 256.983C119.739 260.625 105.449 252.255 101.804 238.288C98.1587 224.321 106.539 210.047 120.521 206.405C134.504 202.763 148.794 211.133 152.439 225.1Z" stroke="black" stroke-width="13" stroke-miterlimit="10" stroke-linecap="round" stroke-linejoin="round"/>
<path d="M168.938 377.199C172.584 391.166 164.203 405.441 150.221 409.083C136.238 412.724 121.948 404.355 118.303 390.387C114.658 376.421 123.038 362.146 137.02 358.504C151.003 354.862 165.293 363.232 168.938 377.199Z" stroke="black" stroke-width="13" stroke-miterlimit="10" stroke-linecap="round" stroke-linejoin="round"/>
<path d="M384.089 257.936C387.734 271.903 379.354 286.178 365.372 289.819C351.389 293.461 337.099 285.091 333.454 271.124" stroke="black" stroke-width="13" stroke-miterlimit="10" stroke-linecap="round" stroke-linejoin="round"/>
<path d="M336.688 396.338C340.333 410.305 331.953 424.58 317.97 428.222C303.988 431.863 289.698 423.493 286.053 409.526C282.407 395.56 290.787 381.286 304.77 377.644C318.752 374.002 333.042 382.372 336.688 396.338Z" stroke="black" stroke-width="13" stroke-miterlimit="10" stroke-linecap="round" stroke-linejoin="round"/>
<path d="M254.709 228.132C242.557 228.779 231.217 220.843 228.028 208.622C224.382 194.655 232.763 180.38 246.745 176.738C250.07 175.868 253.533 175.662 256.937 176.133C260.341 176.604 263.618 177.743 266.581 179.483" stroke="black" stroke-width="13" stroke-miterlimit="10" stroke-linecap="round" stroke-linejoin="round"/>
<path d="M172.125 158.975L191.078 191.292" stroke="black" stroke-width="13" stroke-miterlimit="10" stroke-linecap="round" stroke-linejoin="round"/>
<path d="M209.767 261.145L181.562 285.826" stroke="black" stroke-width="13" stroke-miterlimit="10" stroke-linecap="round" stroke-linejoin="round"/>
<path d="M219.683 405.451L229.779 441.523" stroke="black" stroke-width="13" stroke-miterlimit="10" stroke-linecap="round" stroke-linejoin="round"/>
<path d="M278.979 327.378L316.371 324.565" stroke="black" stroke-width="13" stroke-miterlimit="10" stroke-linecap="round" stroke-linejoin="round"/>
<path d="M210.662 340.318L242.239 360.516" stroke="black" stroke-width="13" stroke-miterlimit="10" stroke-linecap="round" stroke-linejoin="round"/>
<path d="M98.8518 315.202L136.244 312.389" stroke="black" stroke-width="13" stroke-miterlimit="10" stroke-linecap="round" stroke-linejoin="round"/>
<path d="M359.549 354.654L380.255 323.426" stroke="black" stroke-width="13" stroke-miterlimit="10" stroke-linecap="round" stroke-linejoin="round"/>
<path d="M93.6499 182.518C127.171 140.321 178.928 113.263 237.005 113.263C252.442 113.263 267.433 115.175 281.753 118.774" stroke="black" stroke-width="13" stroke-miterlimit="10" stroke-linecap="round" stroke-linejoin="round"/>
<path d="M414.122 250.113C417.95 264.85 419.987 280.31 419.987 296.245C419.987 397.302 338.063 479.225 237.005 479.225C135.949 479.225 54.0249 397.302 54.0249 296.245C54.0249 266.665 61.0439 238.725 73.5068 213.998" stroke="black" stroke-width="13" stroke-miterlimit="10" stroke-linecap="round" stroke-linejoin="round"/>
</svg>
