<svg width="238" height="235" viewBox="0 0 238 235" fill="none" xmlns="http://www.w3.org/2000/svg">
<path d="M89 98L101 134" stroke="black" stroke-width="13" stroke-miterlimit="10" stroke-linecap="round" stroke-linejoin="round"/>
<path d="M205.526 109.725C175.435 60.588 127.058 22.9101 70.6723 7.00001L7 228L231 168.843C229.089 161.705 226.819 154.666 224.198 147.754" stroke="black" stroke-width="13" stroke-miterlimit="10" stroke-linecap="round" stroke-linejoin="round"/>
<path d="M41.6741 111C55.8271 114.939 64.015 129.323 59.9639 143.13C55.9107 156.935 41.153 164.935 27 160.996" stroke="black" stroke-width="13" stroke-miterlimit="10" stroke-linecap="round" stroke-linejoin="round"/>
<path d="M104.363 200C98.3999 189.414 100.439 175.731 109.906 167.431C120.725 157.946 137.148 159.085 146.589 169.975C148.837 172.562 150.556 175.569 151.645 178.825C152.735 182.08 153.174 185.52 152.938 188.947" stroke="black" stroke-width="13" stroke-miterlimit="10" stroke-linecap="round" stroke-linejoin="round"/>
<path d="M59 53C64.3439 54.564 69.6147 56.3649 74.7967 58.3974C131.084 80.4722 170.319 127.065 185 181" stroke="black" stroke-width="13" stroke-miterlimit="10" stroke-linecap="round" stroke-linejoin="round"/>
</svg>
