<svg width="474" height="474" viewBox="0 0 474 474" fill="none" xmlns="http://www.w3.org/2000/svg">
<path d="M384.089 198.443C387.734 212.41 379.354 226.685 365.372 230.326C351.389 233.968 337.099 225.598 333.454 211.631M254.709 168.639C242.557 169.286 231.217 161.35 228.028 149.13C224.382 135.163 232.763 120.888 246.745 117.246C250.07 116.375 253.533 116.169 256.937 116.64C260.341 117.111 263.618 118.25 266.581 119.991M172.125 99.4827L191.078 131.8M209.767 201.652L181.562 226.333M219.683 345.959L229.779 382.031M278.979 267.885L316.371 265.072M210.662 280.825L242.239 301.023M98.8518 255.709L136.244 252.896M359.549 295.161L380.255 263.933M317 106.507L329 142.507M433.526 118.232C403.435 69.0953 355.058 31.4174 298.672 15.5073L235 236.507L459 177.35C457.089 170.212 454.819 163.174 452.198 156.261M269.674 119.507C283.827 123.446 292.015 137.83 287.964 151.637C283.911 165.443 269.153 173.442 255 169.503M332.363 208.507C326.4 197.921 328.439 184.238 337.906 175.938C348.725 166.454 365.148 167.592 374.589 178.482C376.837 181.069 378.556 184.076 379.645 187.332C380.735 190.588 381.174 194.028 380.938 197.454M93.6499 123.026C127.171 80.8286 178.928 53.7707 237.005 53.7707C252.442 53.7707 267.433 55.6827 281.753 59.2817M414.122 190.62C417.95 205.357 419.987 220.817 419.987 236.752C419.987 337.81 338.063 419.733 237.005 419.733C135.949 419.733 54.0249 337.81 54.0249 236.752C54.0249 207.172 61.0439 179.232 73.5068 154.505M287 61.5073C292.344 63.0713 297.615 64.8722 302.797 66.9047C359.084 88.9795 398.319 135.572 413 189.507M237.006 236.752L459.52 178.796C491.557 301.55 417.906 427.009 295.015 459.016C172.125 491.024 46.5309 417.461 14.493 294.708C-17.5439 171.955 56.1069 46.4957 178.998 14.4878C218.644 4.16179 258.572 4.82277 295.549 14.5797L237.006 236.752ZM152.439 165.607C156.084 179.574 147.704 193.849 133.722 197.49C119.739 201.132 105.449 192.762 101.804 178.795C98.1587 164.828 106.539 150.555 120.521 146.913C134.504 143.271 148.794 151.641 152.439 165.607ZM168.938 317.706C172.584 331.673 164.203 345.948 150.221 349.59C136.238 353.231 121.948 344.862 118.303 330.894C114.658 316.928 123.038 302.653 137.02 299.011C151.003 295.369 165.293 303.739 168.938 317.706ZM336.688 336.846C340.333 350.813 331.953 365.088 317.97 368.73C303.988 372.371 289.698 364.001 286.053 350.034C282.407 336.068 290.787 321.793 304.77 318.151C318.752 314.509 333.042 322.879 336.688 336.846Z" stroke="black" stroke-width="13" stroke-miterlimit="10" stroke-linecap="round" stroke-linejoin="round"/>
</svg>
