<svg width="474" height="474" viewBox="0 0 474 474" fill="none" xmlns="http://www.w3.org/2000/svg">
<path d="M237.006 237.245L459.52 179.289C491.557 302.043 417.906 427.501 295.015 459.509C172.125 491.517 46.5309 417.953 14.493 295.201C-17.5439 172.448 56.1069 46.9884 178.998 14.9804C218.644 4.65448 258.572 5.31545 295.549 15.0724L237.006 237.245Z" stroke="black" stroke-width="13" stroke-miterlimit="10" stroke-linecap="round" stroke-linejoin="round"/>
<path d="M152.439 166.1C156.084 180.067 147.704 194.342 133.722 197.983C119.739 201.625 105.449 193.255 101.804 179.288C98.1587 165.321 106.539 151.047 120.521 147.405C134.504 143.763 148.794 152.133 152.439 166.1Z" stroke="black" stroke-width="13" stroke-miterlimit="10" stroke-linecap="round" stroke-linejoin="round"/>
<path d="M168.938 318.199C172.584 332.166 164.203 346.441 150.221 350.083C136.238 353.724 121.948 345.355 118.303 331.387C114.658 317.421 123.038 303.146 137.02 299.504C151.003 295.862 165.293 304.232 168.938 318.199Z" stroke="black" stroke-width="13" stroke-miterlimit="10" stroke-linecap="round" stroke-linejoin="round"/>
<path d="M384.089 198.936C387.734 212.903 379.354 227.178 365.372 230.819C351.389 234.461 337.099 226.091 333.454 212.124" stroke="black" stroke-width="13" stroke-miterlimit="10" stroke-linecap="round" stroke-linejoin="round"/>
<path d="M336.688 337.338C340.333 351.305 331.953 365.58 317.97 369.222C303.988 372.863 289.698 364.493 286.053 350.526C282.407 336.56 290.787 322.286 304.77 318.644C318.752 315.002 333.042 323.372 336.688 337.338Z" stroke="black" stroke-width="13" stroke-miterlimit="10" stroke-linecap="round" stroke-linejoin="round"/>
<path d="M254.709 169.132C242.557 169.779 231.217 161.843 228.028 149.622C224.382 135.655 232.763 121.38 246.745 117.738C250.07 116.868 253.533 116.662 256.937 117.133C260.341 117.604 263.618 118.743 266.581 120.483" stroke="black" stroke-width="13" stroke-miterlimit="10" stroke-linecap="round" stroke-linejoin="round"/>
<path d="M172.125 99.9753L191.078 132.292" stroke="black" stroke-width="13" stroke-miterlimit="10" stroke-linecap="round" stroke-linejoin="round"/>
<path d="M209.767 202.145L181.562 226.826" stroke="black" stroke-width="13" stroke-miterlimit="10" stroke-linecap="round" stroke-linejoin="round"/>
<path d="M219.683 346.451L229.779 382.523" stroke="black" stroke-width="13" stroke-miterlimit="10" stroke-linecap="round" stroke-linejoin="round"/>
<path d="M278.979 268.378L316.371 265.565" stroke="black" stroke-width="13" stroke-miterlimit="10" stroke-linecap="round" stroke-linejoin="round"/>
<path d="M210.662 281.318L242.239 301.516" stroke="black" stroke-width="13" stroke-miterlimit="10" stroke-linecap="round" stroke-linejoin="round"/>
<path d="M98.8518 256.202L136.244 253.389" stroke="black" stroke-width="13" stroke-miterlimit="10" stroke-linecap="round" stroke-linejoin="round"/>
<path d="M359.549 295.654L380.255 264.426" stroke="black" stroke-width="13" stroke-miterlimit="10" stroke-linecap="round" stroke-linejoin="round"/>
<path d="M93.6499 123.518C127.171 81.3213 178.928 54.2634 237.005 54.2634C252.442 54.2634 267.433 56.1754 281.753 59.7744" stroke="black" stroke-width="13" stroke-miterlimit="10" stroke-linecap="round" stroke-linejoin="round"/>
<path d="M414.122 191.113C417.95 205.85 419.987 221.31 419.987 237.245C419.987 338.302 338.063 420.225 237.005 420.225C135.949 420.225 54.0249 338.302 54.0249 237.245C54.0249 207.665 61.0439 179.725 73.5068 154.998" stroke="black" stroke-width="13" stroke-miterlimit="10" stroke-linecap="round" stroke-linejoin="round"/>
</svg>
